<?xml version="1.0" encoding="UTF-8" standalone="no"?>
<!-- Created with Inkscape (http://www.inkscape.org/) -->

<svg
   xmlns:dc="http://purl.org/dc/elements/1.1/"
   xmlns:cc="http://creativecommons.org/ns#"
   xmlns:rdf="http://www.w3.org/1999/02/22-rdf-syntax-ns#"
   xmlns:svg="http://www.w3.org/2000/svg"
   xmlns="http://www.w3.org/2000/svg"
   xmlns:sodipodi="http://sodipodi.sourceforge.net/DTD/sodipodi-0.dtd"
   xmlns:inkscape="http://www.inkscape.org/namespaces/inkscape"
   width="1052.3622"
   height="744.09448"
   id="svg2"
   version="1.1"
   inkscape:version="0.48.4 r9939"
   sodipodi:docname="bad1.svg">
  <defs
     id="defs4" />
  <sodipodi:namedview
     id="base"
     pagecolor="#ffffff"
     bordercolor="#666666"
     borderopacity="1.0"
     inkscape:pageopacity="0.0"
     inkscape:pageshadow="2"
     inkscape:zoom="1"
     inkscape:cx="130.16955"
     inkscape:cy="455.35715"
     inkscape:document-units="px"
     inkscape:current-layer="layer1"
     showgrid="false"
     inkscape:object-paths="true"
     inkscape:snap-object-midpoints="true"
     inkscape:window-width="1303"
     inkscape:window-height="744"
     inkscape:window-x="63"
     inkscape:window-y="24"
     inkscape:window-maximized="1"
     showguides="true"
     inkscape:guide-bbox="true">
    <sodipodi:guide
       orientation="0,1"
       position="505,350"
       id="guide5891" />
  </sodipodi:namedview>
  <metadata
     id="metadata7">
    <rdf:RDF>
      <cc:Work
         rdf:about="">
        <dc:format>image/svg+xml</dc:format>
        <dc:type
           rdf:resource="http://purl.org/dc/dcmitype/StillImage" />
        <dc:title />
      </cc:Work>
    </rdf:RDF>
  </metadata>
  <g
     inkscape:label="Layer 1"
     inkscape:groupmode="layer"
     id="layer1"
     transform="translate(0,-308.2677)">
    <path
       style="fill:none;stroke:#000000;stroke-width:3;stroke-linecap:butt;stroke-linejoin:miter;stroke-miterlimit:4;stroke-opacity:1;stroke-dasharray:24, 24;stroke-dashoffset:0"
       d="M 707.88034,468.60609 606.30478,575.39333"
       id="path3877-2"
       inkscape:connector-curvature="0"
       sodipodi:nodetypes="cc" />
    <path
       style="fill:none;stroke:#000000;stroke-width:3;stroke-linecap:butt;stroke-linejoin:miter;stroke-miterlimit:4;stroke-opacity:1;stroke-dasharray:24, 24;stroke-dashoffset:0"
       d="M 663.33259,784.68284 537.73335,723.25047"
       id="path3877-7"
       inkscape:connector-curvature="0"
       sodipodi:nodetypes="cc" />
    <path
       style="fill:none;stroke:#000000;stroke-width:3;stroke-linecap:butt;stroke-linejoin:miter;stroke-miterlimit:4;stroke-opacity:1;stroke-dasharray:24, 24;stroke-dashoffset:0"
       d="M 428.22144,499.00611 294.22285,354.0548"
       id="path3877"
       inkscape:connector-curvature="0" />
    <path
       style="fill:none;stroke:#000000;stroke-width:3;stroke-linecap:butt;stroke-linejoin:miter;stroke-miterlimit:4;stroke-opacity:1;stroke-dasharray:none"
       d="M 537.73335,723.25047 606.30478,575.39333 428.22144,499.00611 z"
       id="path3791"
       inkscape:connector-curvature="0" />
    <path
       sodipodi:type="arc"
       style="fill:#ffffff;fill-opacity:1;stroke:none"
       id="path2985"
       sodipodi:cx="97.14286"
       sodipodi:cy="232.36218"
       sodipodi:rx="42.857143"
       sodipodi:ry="25.714285"
       d="m 140,232.36218 c 0,14.20161 -19.18779,25.71429 -42.85714,25.71429 -23.669346,0 -42.857143,-11.51268 -42.857143,-25.71429 0,-14.2016 19.187797,-25.71428 42.857143,-25.71428 23.66935,0 42.85714,11.51268 42.85714,25.71428 z" />
    <path
       sodipodi:type="arc"
       style="fill:#f05f40;fill-opacity:1;stroke:none"
       id="path2987"
       sodipodi:cx="155.56349"
       sodipodi:cy="178.58023"
       sodipodi:rx="71.720833"
       sodipodi:ry="71.720833"
       d="m 227.28432,178.58023 a 71.720833,71.720833 0 1 1 -143.441661,0 71.720833,71.720833 0 1 1 143.441661,0 z"
       transform="matrix(0.35915496,0,0,0.35915496,372.35004,434.86814)" />
    <path
       sodipodi:type="arc"
       style="fill:#252525;fill-opacity:1;stroke:none"
       id="path2987-3"
       sodipodi:cx="155.56349"
       sodipodi:cy="178.58023"
       sodipodi:rx="71.720833"
       sodipodi:ry="71.720833"
       d="m 227.28432,178.58023 a 71.720833,71.720833 0 1 1 -143.441661,0 71.720833,71.720833 0 1 1 143.441661,0 z"
       transform="matrix(0.35915496,0,0,0.35915496,269.71909,755.54108)" />
    <path
       sodipodi:type="arc"
       style="fill:#f05f40;fill-opacity:1;stroke:none"
       id="path2987-6"
       sodipodi:cx="155.56349"
       sodipodi:cy="178.58023"
       sodipodi:rx="71.720833"
       sodipodi:ry="71.720833"
       d="m 227.28432,178.58023 a 71.720833,71.720833 0 1 1 -143.441661,0 71.720833,71.720833 0 1 1 143.441661,0 z"
       transform="matrix(0.35915496,0,0,0.35915496,481.86195,659.1125)" />
    <path
       sodipodi:type="arc"
       style="fill:#f05f40;fill-opacity:1;stroke:none"
       id="path2987-7"
       sodipodi:cx="155.56349"
       sodipodi:cy="178.58023"
       sodipodi:rx="71.720833"
       sodipodi:ry="71.720833"
       d="m 227.28432,178.58023 a 71.720833,71.720833 0 1 1 -143.441661,0 71.720833,71.720833 0 1 1 143.441661,0 z"
       transform="matrix(0.35915496,0,0,0.35915496,550.43338,511.25535)" />
    <path
       sodipodi:type="arc"
       style="fill:#252525;fill-opacity:1;stroke:none"
       id="path2987-5-3"
       sodipodi:cx="155.56349"
       sodipodi:cy="178.58023"
       sodipodi:rx="71.720833"
       sodipodi:ry="71.720833"
       d="m 227.28432,178.58023 a 71.720833,71.720833 0 1 1 -143.441661,0 71.720833,71.720833 0 1 1 143.441661,0 z"
       transform="matrix(0.35915496,0,0,0.35915496,238.35145,289.91682)" />
    <path
       sodipodi:type="arc"
       style="fill:#252525;fill-opacity:1;stroke:none"
       id="path2987-5-3-5"
       sodipodi:cx="155.56349"
       sodipodi:cy="178.58023"
       sodipodi:rx="71.720833"
       sodipodi:ry="71.720833"
       d="m 227.28432,178.58023 a 71.720833,71.720833 0 1 1 -143.441661,0 71.720833,71.720833 0 1 1 143.441661,0 z"
       transform="matrix(0.35915496,0,0,0.35915496,115.31487,737.51541)" />
    <path
       sodipodi:type="arc"
       style="fill:#252525;fill-opacity:1;stroke:none"
       id="path2987-5-3-6"
       sodipodi:cx="155.56349"
       sodipodi:cy="178.58023"
       sodipodi:rx="71.720833"
       sodipodi:ry="71.720833"
       d="m 227.28432,178.58023 a 71.720833,71.720833 0 1 1 -143.441661,0 71.720833,71.720833 0 1 1 143.441661,0 z"
       transform="matrix(0.35915496,0,0,0.35915496,257.44335,902.9784)" />
    <path
       sodipodi:type="arc"
       style="fill:#252525;fill-opacity:1;stroke:none"
       id="path2987-5-3-2"
       sodipodi:cx="155.56349"
       sodipodi:cy="178.58023"
       sodipodi:rx="71.720833"
       sodipodi:ry="71.720833"
       d="m 227.28432,178.58023 a 71.720833,71.720833 0 1 1 -143.441661,0 71.720833,71.720833 0 1 1 143.441661,0 z"
       transform="matrix(0.35915496,0,0,0.35915496,607.46119,720.54486)" />
    <path
       sodipodi:type="arc"
       style="fill:#252525;fill-opacity:1;stroke:none"
       id="path2987-5"
       sodipodi:cx="155.56349"
       sodipodi:cy="178.58023"
       sodipodi:rx="71.720833"
       sodipodi:ry="71.720833"
       d="m 227.28432,178.58023 a 71.720833,71.720833 0 1 1 -143.441661,0 71.720833,71.720833 0 1 1 143.441661,0 z"
       transform="matrix(0.35915496,0,0,0.35915496,652.00894,404.46812)" />
    <path
       style="fill:none;stroke:#000000;stroke-width:3;stroke-linecap:butt;stroke-linejoin:miter;stroke-miterlimit:4;stroke-opacity:1;stroke-dasharray:24, 24;stroke-dashoffset:0"
       d="M 325.59049,819.67905 537.73335,723.25047"
       id="path3877-3"
       inkscape:connector-curvature="0"
       sodipodi:nodetypes="cc" />
  </g>
</svg>
