<?xml version="1.0" encoding="UTF-8" standalone="no"?>
<!-- Created with Inkscape (http://www.inkscape.org/) -->

<svg
   xmlns:dc="http://purl.org/dc/elements/1.1/"
   xmlns:cc="http://creativecommons.org/ns#"
   xmlns:rdf="http://www.w3.org/1999/02/22-rdf-syntax-ns#"
   xmlns:svg="http://www.w3.org/2000/svg"
   xmlns="http://www.w3.org/2000/svg"
   xmlns:sodipodi="http://sodipodi.sourceforge.net/DTD/sodipodi-0.dtd"
   xmlns:inkscape="http://www.inkscape.org/namespaces/inkscape"
   width="744.09448819"
   height="1052.3622047"
   id="svg2"
   version="1.1"
   inkscape:version="0.48.4 r9939"
   sodipodi:docname="bad3.png">
  <defs
     id="defs4" />
  <sodipodi:namedview
     id="base"
     pagecolor="#ffffff"
     bordercolor="#666666"
     borderopacity="1.0"
     inkscape:pageopacity="0.0"
     inkscape:pageshadow="2"
     inkscape:zoom="1"
     inkscape:cx="296.16955"
     inkscape:cy="600"
     inkscape:document-units="px"
     inkscape:current-layer="layer1"
     showgrid="false"
     inkscape:object-paths="true"
     inkscape:snap-object-midpoints="true"
     inkscape:window-width="1303"
     inkscape:window-height="744"
     inkscape:window-x="63"
     inkscape:window-y="24"
     inkscape:window-maximized="1" />
  <metadata
     id="metadata7">
    <rdf:RDF>
      <cc:Work
         rdf:about="">
        <dc:format>image/svg+xml</dc:format>
        <dc:type
           rdf:resource="http://purl.org/dc/dcmitype/StillImage" />
        <dc:title></dc:title>
      </cc:Work>
    </rdf:RDF>
  </metadata>
  <g
     inkscape:label="Layer 1"
     inkscape:groupmode="layer"
     id="layer1">
    <path
       style="fill:none;stroke:#000000;stroke-width:2;stroke-linecap:butt;stroke-linejoin:miter;stroke-miterlimit:4;stroke-opacity:1;stroke-dasharray:none;stroke-dashoffset:0"
       d="M 251.42857,559.50505 392.85714,495.21933"
       id="path3877-3"
       inkscape:connector-curvature="0"
       sodipodi:nodetypes="cc" />
    <path
       style="fill:none;stroke:#000000;stroke-width:2;stroke-linecap:butt;stroke-linejoin:miter;stroke-miterlimit:4;stroke-opacity:1;stroke-dasharray:none;stroke-dashoffset:0"
       d="M 506.28847,325.45641 438.57143,396.6479"
       id="path3877-2"
       inkscape:connector-curvature="0"
       sodipodi:nodetypes="cc" />
    <path
       style="fill:none;stroke:#000000;stroke-width:2;stroke-linecap:butt;stroke-linejoin:miter;stroke-miterlimit:4;stroke-opacity:1;stroke-dasharray:none;stroke-dashoffset:0"
       d="M 476.58997,536.17424 392.85714,495.21933"
       id="path3877-7"
       inkscape:connector-curvature="0"
       sodipodi:nodetypes="cc" />
    <path
       style="fill:none;stroke:#000000;stroke-width:2;stroke-linecap:butt;stroke-linejoin:miter;stroke-opacity:1;stroke-miterlimit:4;stroke-dasharray:none;stroke-dashoffset:0"
       d="M 319.8492,345.72309 230.51681,249.08888"
       id="path3877"
       inkscape:connector-curvature="0" />
    <path
       style="fill:none;stroke:#000000;stroke-width:2;stroke-linecap:butt;stroke-linejoin:miter;stroke-opacity:1;stroke-miterlimit:4;stroke-dasharray:none"
       d="M 392.85714,495.21933 438.57143,396.6479 319.8492,345.72309 z"
       id="path3791"
       inkscape:connector-curvature="0" />
    <path
       sodipodi:type="arc"
       style="fill:#ffffff;fill-opacity:1;stroke:none"
       id="path2985"
       sodipodi:cx="97.14286"
       sodipodi:cy="232.36218"
       sodipodi:rx="42.857143"
       sodipodi:ry="25.714285"
       d="m 140,232.36218 a 42.857143,25.714285 0 1 1 -85.714283,0 42.857143,25.714285 0 1 1 85.714283,0 z" />
    <path
       sodipodi:type="arc"
       style="fill:#f05f40;fill-opacity:1;stroke:none"
       id="path2987"
       sodipodi:cx="155.56349"
       sodipodi:cy="178.58023"
       sodipodi:rx="71.720833"
       sodipodi:ry="71.720833"
       d="m 227.28432,178.58023 a 71.720833,71.720833 0 1 1 -143.441661,0 71.720833,71.720833 0 1 1 143.441661,0 z"
       transform="matrix(0.23943664,0,0,0.23943664,282.6016,302.96444)" />
    <path
       sodipodi:type="arc"
       style="fill:#f05f40;fill-opacity:1;stroke:none"
       id="path2987-3"
       sodipodi:cx="155.56349"
       sodipodi:cy="178.58023"
       sodipodi:rx="71.720833"
       sodipodi:ry="71.720833"
       d="m 227.28432,178.58023 a 71.720833,71.720833 0 1 1 -143.441661,0 71.720833,71.720833 0 1 1 143.441661,0 z"
       transform="matrix(0.23943664,0,0,0.23943664,214.18097,516.7464)" />
    <path
       sodipodi:type="arc"
       style="fill:#f05f40;fill-opacity:1;stroke:none"
       id="path2987-6"
       sodipodi:cx="155.56349"
       sodipodi:cy="178.58023"
       sodipodi:rx="71.720833"
       sodipodi:ry="71.720833"
       d="m 227.28432,178.58023 a 71.720833,71.720833 0 1 1 -143.441661,0 71.720833,71.720833 0 1 1 143.441661,0 z"
       transform="matrix(0.23943664,0,0,0.23943664,355.60954,452.46068)" />
    <path
       sodipodi:type="arc"
       style="fill:#f05f40;fill-opacity:1;stroke:none"
       id="path2987-7"
       sodipodi:cx="155.56349"
       sodipodi:cy="178.58023"
       sodipodi:rx="71.720833"
       sodipodi:ry="71.720833"
       d="m 227.28432,178.58023 a 71.720833,71.720833 0 1 1 -143.441661,0 71.720833,71.720833 0 1 1 143.441661,0 z"
       transform="matrix(0.23943664,0,0,0.23943664,401.32383,353.88925)" />
    <path
       sodipodi:type="arc"
       style="fill:#f05f40;fill-opacity:1;stroke:none"
       id="path2987-5-3"
       sodipodi:cx="155.56349"
       sodipodi:cy="178.58023"
       sodipodi:rx="71.720833"
       sodipodi:ry="71.720833"
       d="m 227.28432,178.58023 a 71.720833,71.720833 0 1 1 -143.441661,0 71.720833,71.720833 0 1 1 143.441661,0 z"
       transform="matrix(0.23943664,0,0,0.23943664,193.26921,206.33023)" />
    <path
       sodipodi:type="arc"
       style="fill:#252525;fill-opacity:1;stroke:none"
       id="path2987-5-3-5"
       sodipodi:cx="155.56349"
       sodipodi:cy="178.58023"
       sodipodi:rx="71.720833"
       sodipodi:ry="71.720833"
       d="m 227.28432,178.58023 a 71.720833,71.720833 0 1 1 -143.441661,0 71.720833,71.720833 0 1 1 143.441661,0 z"
       transform="matrix(0.23943664,0,0,0.23943664,111.24482,504.72929)" />
    <path
       sodipodi:type="arc"
       style="fill:#252525;fill-opacity:1;stroke:none"
       id="path2987-5-3-6"
       sodipodi:cx="155.56349"
       sodipodi:cy="178.58023"
       sodipodi:rx="71.720833"
       sodipodi:ry="71.720833"
       d="m 227.28432,178.58023 a 71.720833,71.720833 0 1 1 -143.441661,0 71.720833,71.720833 0 1 1 143.441661,0 z"
       transform="matrix(0.23943664,0,0,0.23943664,205.99714,615.03795)" />
    <path
       sodipodi:type="arc"
       style="fill:#f05f40;fill-opacity:1;stroke:none"
       id="path2987-5-3-2"
       sodipodi:cx="155.56349"
       sodipodi:cy="178.58023"
       sodipodi:rx="71.720833"
       sodipodi:ry="71.720833"
       d="m 227.28432,178.58023 a 71.720833,71.720833 0 1 1 -143.441661,0 71.720833,71.720833 0 1 1 143.441661,0 z"
       transform="matrix(0.23943664,0,0,0.23943664,439.34237,493.41559)" />
    <path
       sodipodi:type="arc"
       style="fill:#f05f40;fill-opacity:1;stroke:none"
       id="path2987-5"
       sodipodi:cx="155.56349"
       sodipodi:cy="178.58023"
       sodipodi:rx="71.720833"
       sodipodi:ry="71.720833"
       d="m 227.28432,178.58023 a 71.720833,71.720833 0 1 1 -143.441661,0 71.720833,71.720833 0 1 1 143.441661,0 z"
       transform="matrix(0.23943664,0,0,0.23943664,469.04087,282.69776)" />
  </g>
</svg>
