<?xml version="1.0" encoding="UTF-8" standalone="no"?>
<!-- Created with Inkscape (http://www.inkscape.org/) -->

<svg
   xmlns:dc="http://purl.org/dc/elements/1.1/"
   xmlns:cc="http://creativecommons.org/ns#"
   xmlns:rdf="http://www.w3.org/1999/02/22-rdf-syntax-ns#"
   xmlns:svg="http://www.w3.org/2000/svg"
   xmlns="http://www.w3.org/2000/svg"
   xmlns:sodipodi="http://sodipodi.sourceforge.net/DTD/sodipodi-0.dtd"
   xmlns:inkscape="http://www.inkscape.org/namespaces/inkscape"
   width="1052.3622"
   height="744.09448"
   id="svg2"
   version="1.1"
   inkscape:version="0.48.4 r9939"
   sodipodi:docname="good1.svg">
  <defs
     id="defs4" />
  <sodipodi:namedview
     id="base"
     pagecolor="#ffffff"
     bordercolor="#666666"
     borderopacity="1.0"
     inkscape:pageopacity="0.0"
     inkscape:pageshadow="2"
     inkscape:zoom="0.5"
     inkscape:cx="197.21315"
     inkscape:cy="600"
     inkscape:document-units="px"
     inkscape:current-layer="layer1"
     showgrid="false"
     inkscape:object-paths="true"
     inkscape:snap-object-midpoints="true"
     inkscape:window-width="1303"
     inkscape:window-height="744"
     inkscape:window-x="63"
     inkscape:window-y="24"
     inkscape:window-maximized="1"
     showguides="true"
     inkscape:guide-bbox="true">
    <sodipodi:guide
       orientation="0,1"
       position="505,350"
       id="guide5445" />
  </sodipodi:namedview>
  <metadata
     id="metadata7">
    <rdf:RDF>
      <cc:Work
         rdf:about="">
        <dc:format>image/svg+xml</dc:format>
        <dc:type
           rdf:resource="http://purl.org/dc/dcmitype/StillImage" />
        <dc:title></dc:title>
      </cc:Work>
    </rdf:RDF>
  </metadata>
  <g
     inkscape:label="Layer 1"
     inkscape:groupmode="layer"
     id="layer1"
     transform="translate(0,-308.2677)">
    <path
       style="fill:none;stroke:#000000;stroke-width:3;stroke-linecap:butt;stroke-linejoin:miter;stroke-miterlimit:4;stroke-opacity:1;stroke-dasharray:24, 24;stroke-dashoffset:0"
       d="M 727.13887,474.92319 625.56331,581.71043"
       id="path3877-2"
       inkscape:connector-curvature="0"
       sodipodi:nodetypes="cc" />
    <path
       style="fill:none;stroke:#000000;stroke-width:3;stroke-linecap:butt;stroke-linejoin:miter;stroke-miterlimit:4;stroke-opacity:1;stroke-dasharray:24, 24;stroke-dashoffset:0"
       d="M 682.59112,790.99994 556.99187,729.56757"
       id="path3877-7"
       inkscape:connector-curvature="0"
       sodipodi:nodetypes="cc" />
    <path
       style="fill:none;stroke:#000000;stroke-width:3;stroke-linecap:butt;stroke-linejoin:miter;stroke-miterlimit:4;stroke-opacity:1;stroke-dasharray:24, 24;stroke-dashoffset:0"
       d="M 332.57327,973.43348 344.84902,825.99615"
       id="path3877-0"
       inkscape:connector-curvature="0"
       sodipodi:nodetypes="cc" />
    <path
       style="fill:none;stroke:#000000;stroke-width:3;stroke-linecap:butt;stroke-linejoin:miter;stroke-miterlimit:4;stroke-opacity:1;stroke-dasharray:24, 24;stroke-dashoffset:0"
       d="M 344.84902,825.99615 190.44479,807.97049"
       id="path3877-9"
       inkscape:connector-curvature="0"
       sodipodi:nodetypes="cc" />
    <path
       style="fill:none;stroke:#000000;stroke-width:3;stroke-linecap:butt;stroke-linejoin:miter;stroke-miterlimit:4;stroke-opacity:1;stroke-dasharray:24, 24;stroke-dashoffset:0"
       d="M 447.47996,505.32321 313.48138,360.3719"
       id="path3877"
       inkscape:connector-curvature="0" />
    <path
       style="fill:none;stroke:#000000;stroke-width:3;stroke-linecap:butt;stroke-linejoin:miter;stroke-miterlimit:4;stroke-opacity:1;stroke-dasharray:none"
       d="M 556.99187,729.56757 625.56331,581.71043 447.47996,505.32321 z"
       id="path3791"
       inkscape:connector-curvature="0" />
    <path
       style="fill:none;stroke:#000000;stroke-width:3;stroke-linecap:butt;stroke-linejoin:miter;stroke-miterlimit:4;stroke-opacity:1;stroke-dasharray:none"
       d="M 556.99187,729.56757 344.84902,825.99615"
       id="path3793"
       inkscape:connector-curvature="0" />
    <path
       sodipodi:type="arc"
       style="fill:#f05f40;fill-opacity:1;stroke:none"
       id="path2987"
       sodipodi:cx="155.56349"
       sodipodi:cy="178.58023"
       sodipodi:rx="71.720833"
       sodipodi:ry="71.720833"
       d="m 227.28432,178.58023 a 71.720833,71.720833 0 1 1 -143.441661,0 71.720833,71.720833 0 1 1 143.441661,0 z"
       transform="matrix(0.35915496,0,0,0.35915496,391.60856,441.18524)" />
    <path
       sodipodi:type="arc"
       style="fill:#f05f40;fill-opacity:1;stroke:none"
       id="path2987-3"
       sodipodi:cx="155.56349"
       sodipodi:cy="178.58023"
       sodipodi:rx="71.720833"
       sodipodi:ry="71.720833"
       d="m 227.28432,178.58023 a 71.720833,71.720833 0 1 1 -143.441661,0 71.720833,71.720833 0 1 1 143.441661,0 z"
       transform="matrix(0.35915496,0,0,0.35915496,288.97762,761.85818)" />
    <path
       sodipodi:type="arc"
       style="fill:#f05f40;fill-opacity:1;stroke:none"
       id="path2987-6"
       sodipodi:cx="155.56349"
       sodipodi:cy="178.58023"
       sodipodi:rx="71.720833"
       sodipodi:ry="71.720833"
       d="m 227.28432,178.58023 a 71.720833,71.720833 0 1 1 -143.441661,0 71.720833,71.720833 0 1 1 143.441661,0 z"
       transform="matrix(0.35915496,0,0,0.35915496,501.12047,665.4296)" />
    <path
       sodipodi:type="arc"
       style="fill:#f05f40;fill-opacity:1;stroke:none"
       id="path2987-7"
       sodipodi:cx="155.56349"
       sodipodi:cy="178.58023"
       sodipodi:rx="71.720833"
       sodipodi:ry="71.720833"
       d="m 227.28432,178.58023 a 71.720833,71.720833 0 1 1 -143.441661,0 71.720833,71.720833 0 1 1 143.441661,0 z"
       transform="matrix(0.35915496,0,0,0.35915496,569.69191,517.57245)" />
    <path
       sodipodi:type="arc"
       style="fill:#252525;fill-opacity:1;stroke:none"
       id="path2987-5-3"
       sodipodi:cx="155.56349"
       sodipodi:cy="178.58023"
       sodipodi:rx="71.720833"
       sodipodi:ry="71.720833"
       d="m 227.28432,178.58023 a 71.720833,71.720833 0 1 1 -143.441661,0 71.720833,71.720833 0 1 1 143.441661,0 z"
       transform="matrix(0.35915496,0,0,0.35915496,257.60998,296.23392)" />
    <path
       sodipodi:type="arc"
       style="fill:#252525;fill-opacity:1;stroke:none"
       id="path2987-5-3-5"
       sodipodi:cx="155.56349"
       sodipodi:cy="178.58023"
       sodipodi:rx="71.720833"
       sodipodi:ry="71.720833"
       d="m 227.28432,178.58023 a 71.720833,71.720833 0 1 1 -143.441661,0 71.720833,71.720833 0 1 1 143.441661,0 z"
       transform="matrix(0.35915496,0,0,0.35915496,134.57339,743.83251)" />
    <path
       sodipodi:type="arc"
       style="fill:#252525;fill-opacity:1;stroke:none"
       id="path2987-5-3-6"
       sodipodi:cx="155.56349"
       sodipodi:cy="178.58023"
       sodipodi:rx="71.720833"
       sodipodi:ry="71.720833"
       d="m 227.28432,178.58023 a 71.720833,71.720833 0 1 1 -143.441661,0 71.720833,71.720833 0 1 1 143.441661,0 z"
       transform="matrix(0.35915496,0,0,0.35915496,276.70187,909.2955)" />
    <path
       sodipodi:type="arc"
       style="fill:#252525;fill-opacity:1;stroke:none"
       id="path2987-5-3-2"
       sodipodi:cx="155.56349"
       sodipodi:cy="178.58023"
       sodipodi:rx="71.720833"
       sodipodi:ry="71.720833"
       d="m 227.28432,178.58023 a 71.720833,71.720833 0 1 1 -143.441661,0 71.720833,71.720833 0 1 1 143.441661,0 z"
       transform="matrix(0.35915496,0,0,0.35915496,626.71972,726.86196)" />
    <path
       sodipodi:type="arc"
       style="fill:#252525;fill-opacity:1;stroke:none"
       id="path2987-5"
       sodipodi:cx="155.56349"
       sodipodi:cy="178.58023"
       sodipodi:rx="71.720833"
       sodipodi:ry="71.720833"
       d="m 227.28432,178.58023 a 71.720833,71.720833 0 1 1 -143.441661,0 71.720833,71.720833 0 1 1 143.441661,0 z"
       transform="matrix(0.35915496,0,0,0.35915496,671.26747,410.78522)" />
  </g>
</svg>
