<?xml version="1.0" encoding="UTF-8" standalone="no"?>
<!-- Created with Inkscape (http://www.inkscape.org/) -->

<svg
   xmlns:dc="http://purl.org/dc/elements/1.1/"
   xmlns:cc="http://creativecommons.org/ns#"
   xmlns:rdf="http://www.w3.org/1999/02/22-rdf-syntax-ns#"
   xmlns:svg="http://www.w3.org/2000/svg"
   xmlns="http://www.w3.org/2000/svg"
   xmlns:sodipodi="http://sodipodi.sourceforge.net/DTD/sodipodi-0.dtd"
   xmlns:inkscape="http://www.inkscape.org/namespaces/inkscape"
   version="1.1"
   width="1052.3622"
   height="744.09448"
   id="svg2"
   inkscape:version="0.48.4 r9939"
   sodipodi:docname="good2.png">
  <sodipodi:namedview
     pagecolor="#ffffff"
     bordercolor="#666666"
     borderopacity="1"
     objecttolerance="10"
     gridtolerance="10"
     guidetolerance="10"
     inkscape:pageopacity="0"
     inkscape:pageshadow="2"
     inkscape:window-width="1303"
     inkscape:window-height="744"
     id="namedview5557"
     showgrid="false"
     showguides="true"
     inkscape:guide-bbox="true"
     inkscape:object-paths="true"
     inkscape:snap-object-midpoints="true"
     inkscape:zoom="0.31714785"
     inkscape:cx="110.33965"
     inkscape:cy="526.18109"
     inkscape:window-x="63"
     inkscape:window-y="24"
     inkscape:window-maximized="1"
     inkscape:current-layer="layer1">
    <sodipodi:guide
       orientation="0,1"
       position="505,350"
       id="guide5559" />
  </sodipodi:namedview>
  <defs
     id="defs4" />
  <metadata
     id="metadata7">
    <rdf:RDF>
      <cc:Work
         rdf:about="">
        <dc:format>image/svg+xml</dc:format>
        <dc:type
           rdf:resource="http://purl.org/dc/dcmitype/StillImage" />
        <dc:title></dc:title>
      </cc:Work>
    </rdf:RDF>
  </metadata>
  <g
     id="layer1"
     transform="matrix(1.5,0,0,1.5,-32.293835,-321.52856)">
    <path
       d="M 506.28847,325.45641 438.57143,396.6479"
       id="path3877-2"
       style="fill:none;stroke:#000000;stroke-width:2;stroke-linecap:butt;stroke-linejoin:miter;stroke-miterlimit:4;stroke-opacity:1;stroke-dasharray:none;stroke-dashoffset:0"
       inkscape:connector-curvature="0" />
    <path
       d="M 476.58997,536.17424 392.85714,495.21933"
       id="path3877-7"
       style="fill:none;stroke:#000000;stroke-width:2;stroke-linecap:butt;stroke-linejoin:miter;stroke-miterlimit:4;stroke-opacity:1;stroke-dasharray:none;stroke-dashoffset:0"
       inkscape:connector-curvature="0" />
    <path
       d="m 243.24474,657.7966 8.18383,-98.29155"
       id="path3877-0"
       style="fill:none;stroke:#000000;stroke-width:2;stroke-linecap:butt;stroke-linejoin:miter;stroke-miterlimit:4;stroke-opacity:1;stroke-dasharray:none;stroke-dashoffset:0"
       inkscape:connector-curvature="0" />
    <path
       d="M 251.42857,559.50505 148.49242,547.48794"
       id="path3877-9"
       style="fill:none;stroke:#000000;stroke-width:2;stroke-linecap:butt;stroke-linejoin:miter;stroke-miterlimit:4;stroke-opacity:1;stroke-dasharray:none;stroke-dashoffset:0"
       inkscape:connector-curvature="0" />
    <path
       d="M 319.8492,345.72309 230.51681,249.08888"
       id="path3877"
       style="fill:none;stroke:#000000;stroke-width:2;stroke-linecap:butt;stroke-linejoin:miter;stroke-miterlimit:4;stroke-opacity:1;stroke-dasharray:none;stroke-dashoffset:0"
       inkscape:connector-curvature="0" />
    <path
       d="M 392.85714,495.21933 438.57143,396.6479 319.8492,345.72309 z"
       id="path3791"
       style="fill:none;stroke:#000000;stroke-width:2;stroke-linecap:butt;stroke-linejoin:miter;stroke-miterlimit:4;stroke-opacity:1;stroke-dasharray:none"
       inkscape:connector-curvature="0" />
    <path
       d="M 392.85714,495.21933 251.42857,559.50505"
       id="path3793"
       style="fill:none;stroke:#000000;stroke-width:2;stroke-linecap:butt;stroke-linejoin:miter;stroke-miterlimit:4;stroke-opacity:1;stroke-dasharray:none"
       inkscape:connector-curvature="0" />
    <path
       d="m 227.28432,178.58023 a 71.720833,71.720833 0 1 1 -143.441661,0 71.720833,71.720833 0 1 1 143.441661,0 z"
       transform="matrix(0.23943664,0,0,0.23943664,282.6016,302.96444)"
       id="path2987"
       style="fill:#f05f40;fill-opacity:1;stroke:none"
       inkscape:connector-curvature="0" />
    <path
       d="m 227.28432,178.58023 a 71.720833,71.720833 0 1 1 -143.441661,0 71.720833,71.720833 0 1 1 143.441661,0 z"
       transform="matrix(0.23943664,0,0,0.23943664,214.18097,516.7464)"
       id="path2987-3"
       style="fill:#f05f40;fill-opacity:1;stroke:none"
       inkscape:connector-curvature="0" />
    <path
       d="m 227.28432,178.58023 a 71.720833,71.720833 0 1 1 -143.441661,0 71.720833,71.720833 0 1 1 143.441661,0 z"
       transform="matrix(0.23943664,0,0,0.23943664,355.60954,452.46068)"
       id="path2987-6"
       style="fill:#f05f40;fill-opacity:1;stroke:none"
       inkscape:connector-curvature="0" />
    <path
       d="m 227.28432,178.58023 a 71.720833,71.720833 0 1 1 -143.441661,0 71.720833,71.720833 0 1 1 143.441661,0 z"
       transform="matrix(0.23943664,0,0,0.23943664,401.32383,353.88925)"
       id="path2987-7"
       style="fill:#f05f40;fill-opacity:1;stroke:none"
       inkscape:connector-curvature="0" />
    <path
       d="m 227.28432,178.58023 a 71.720833,71.720833 0 1 1 -143.441661,0 71.720833,71.720833 0 1 1 143.441661,0 z"
       transform="matrix(0.23943664,0,0,0.23943664,193.26921,206.33023)"
       id="path2987-5-3"
       style="fill:#252525;fill-opacity:1;stroke:none"
       inkscape:connector-curvature="0" />
    <path
       d="m 227.28432,178.58023 a 71.720833,71.720833 0 1 1 -143.441661,0 71.720833,71.720833 0 1 1 143.441661,0 z"
       transform="matrix(0.23943664,0,0,0.23943664,111.24482,504.72929)"
       id="path2987-5-3-5"
       style="fill:#252525;fill-opacity:1;stroke:none"
       inkscape:connector-curvature="0" />
    <path
       d="m 227.28432,178.58023 a 71.720833,71.720833 0 1 1 -143.441661,0 71.720833,71.720833 0 1 1 143.441661,0 z"
       transform="matrix(0.23943664,0,0,0.23943664,205.99714,615.03795)"
       id="path2987-5-3-6"
       style="fill:#252525;fill-opacity:1;stroke:none"
       inkscape:connector-curvature="0" />
    <path
       d="m 227.28432,178.58023 a 71.720833,71.720833 0 1 1 -143.441661,0 71.720833,71.720833 0 1 1 143.441661,0 z"
       transform="matrix(0.23943664,0,0,0.23943664,439.34237,493.41559)"
       id="path2987-5-3-2"
       style="fill:#252525;fill-opacity:1;stroke:none"
       inkscape:connector-curvature="0" />
    <path
       d="m 227.28432,178.58023 a 71.720833,71.720833 0 1 1 -143.441661,0 71.720833,71.720833 0 1 1 143.441661,0 z"
       transform="matrix(0.23943664,0,0,0.23943664,469.04087,282.69776)"
       id="path2987-5"
       style="fill:#252525;fill-opacity:1;stroke:none"
       inkscape:connector-curvature="0" />
  </g>
</svg>
